<svg xmlns="http://www.w3.org/2000/svg" viewBox="0 0 64 64" role="img" aria-labelledby="title desc">
  <title id="title">Telescope favicon</title>
  <desc id="desc">A stylised telescope pointing toward a glowing star field.</desc>
  <defs>
    <linearGradient id="bg" x1="0" y1="0" x2="0" y2="1">
      <stop offset="0%" stop-color="#0f172a" />
      <stop offset="100%" stop-color="#1e3a8a" />
    </linearGradient>
    <radialGradient id="glow" cx="40" cy="16" r="22" gradientUnits="userSpaceOnUse">
      <stop offset="0%" stop-color="#38bdf8" stop-opacity="0.7" />
      <stop offset="100%" stop-color="#38bdf8" stop-opacity="0" />
    </radialGradient>
  </defs>
  <rect width="64" height="64" rx="14" fill="url(#bg)" />
  <circle cx="40" cy="18" r="18" fill="url(#glow)" />
  <g fill="#f8fafc" opacity="0.9">
    <circle cx="18" cy="14" r="1.4" />
    <circle cx="50" cy="10" r="1" />
    <circle cx="46" cy="28" r="1.2" />
    <circle cx="30" cy="8" r="1" />
  </g>
  <g transform="translate(10 18)">
    <path fill="#94a3b8" d="M19 17.5a2.5 2.5 0 1 1-5 0a2.5 2.5 0 0 1 5 0Z" />
    <path fill="#f8fafc" d="m6 6l22.5 6.5l-2.8 8.5L3.2 14.5z" transform="rotate(-14 17 12.5)" />
    <path fill="#38bdf8" d="M7.6 8.2a4.8 4.8 0 1 1 6.1 3.4z" />
    <path fill="#cbd5f5" d="M17.2 19.2l4.1 10.8h-4.2L12 19.2z" />
    <path fill="#cbd5f5" d="m21.8 19.2l6.7 10.8h-4.4l-2.3-7z" />
    <path fill="#cbd5f5" d="m12.7 19.2-6 10.8H2.2l5-10.8z" />
    <path fill="#f8fafc" d="M4 14.3h15.4l1.8 5H2.7z" />
  </g>
</svg>
